<?xml version="1.0" encoding="utf-8"?>
<!-- Generator: Adobe Illustrator 18.1.1, SVG Export Plug-In . SVG Version: 6.00 Build 0)  -->
<svg version="1.1"
	 id="Layer_1" xmlns:cc="http://creativecommons.org/ns#" xmlns:dc="http://purl.org/dc/elements/1.1/" xmlns:sodipodi="http://sodipodi.sourceforge.net/DTD/sodipodi-0.dtd" xmlns:inkscape="http://www.inkscape.org/namespaces/inkscape" xmlns:svg="http://www.w3.org/2000/svg" xmlns:rdf="http://www.w3.org/1999/02/22-rdf-syntax-ns#" sodipodi:docname="fragdenstaat_logo_only.svg" inkscape:export-filename="/Users/sw/Sites/froide/artwork/fragdenstaat_square.png" inkscape:export-xdpi="600" inkscape:export-ydpi="600" inkscape:version="0.48.2 r9819"
	 xmlns="http://www.w3.org/2000/svg" xmlns:xlink="http://www.w3.org/1999/xlink" x="0px" y="0px" viewBox="-451 333.7 120.1 103.1"
	 enable-background="new -451 333.7 120.1 103.1" xml:space="preserve">
<sodipodi:namedview  id="namedview5" fit-margin-left="10" fit-margin-top="10" inkscape:zoom="1" inkscape:cy="27.69867" objecttolerance="10" guidetolerance="10" showgrid="false" gridtolerance="10" inkscape:cx="-145.35814" showguides="true" pagecolor="#ffffff" borderopacity="1" bordercolor="#666666" inkscape:pageopacity="1" inkscape:current-layer="text3141" inkscape:window-x="0" inkscape:window-height="1058" fit-margin-right="10" inkscape:window-width="1920" fit-margin-bottom="10" inkscape:window-y="0" inkscape:window-maximized="1" inkscape:pageshadow="2" inkscape:guide-bbox="true">
	<sodipodi:guide  id="guide783" position="190.5,10.505228" orientation="0,1"></sodipodi:guide>
	<sodipodi:guide  id="guide785" position="194.5,97.505209" orientation="0,1"></sodipodi:guide>
</sodipodi:namedview>
<path id="path72" sodipodi:nodetypes="cccccccc" inkscape:export-filename="/Users/sw/Sites/froide/media/img/logo.png" inkscape:export-xdpi="29.126215" inkscape:export-ydpi="29.126215" inkscape:connector-curvature="0" fill="#181C21" d="
	M-421.4,379.8l30.9,18.7l30.9-18.7C-363.9,379.9-418.9,379.7-421.4,379.8z M-390.6,390.6l-17.9-10.9h35.8L-390.6,390.6z"/>
<g id="layer2" transform="translate(-89.499954,-14.129229)" inkscape:label="bg" inkscape:groupmode="layer">
</g>
<g id="layer1" transform="translate(-89.499954,-14.129229)" inkscape:label="fg" inkscape:groupmode="layer">
</g>
<path id="path3" sodipodi:nodetypes="ccccccccccccccccccccccccccccccccccc" inkscape:export-filename="/Users/sw/Sites/froide/media/img/logo.png" inkscape:export-xdpi="29.126215" inkscape:export-ydpi="29.126215" inkscape:connector-curvature="0" fill="#AAAAAA" d="
	M-355.2,380.1v-6.7h-4.4l-30.9-18.7l-30.9,18.7h-4.4v6.7h2v28.9h-2v6.7h70.6v-6.7h-2v-28.9H-355.2z M-390.5,362.5l17.9,10.9h-35.8
	L-390.5,362.5z M-409.6,409.1h-7.5v-28.9h7.5V409.1z M-378.1,409.1h-24.8v-28.9h24.8V409.1z M-363.9,409.1h-7.5v-28.9h7.5V409.1z"/>
<g id="text3141" transform="translate(0,4.1601277e-4)">
</g>
</svg>
