<?xml version="1.0" encoding="utf-8"?>
<!-- Generator: Adobe Illustrator 18.1.1, SVG Export Plug-In . SVG Version: 6.00 Build 0)  -->
<svg version="1.1" id="Layer_1" xmlns="http://www.w3.org/2000/svg" xmlns:xlink="http://www.w3.org/1999/xlink" x="0px" y="0px"
	 viewBox="203 1 618 617.6" enable-background="new 203 1 618 617.6" xml:space="preserve">
<circle fill="#FF6166" cx="512" cy="310" r="309"/>
<path fill="#FFFFFF" d="M685.7,361.6l-52.4-52.4l52.4-52.4c33.4-33.4,33.4-87.9,0-121.3c-16.2-16.2-37.8-25.1-60.7-25.1
	c-22.9,0-44.5,8.9-60.7,25.1L512,187.9l-52.4-52.4c-16.2-16.2-37.7-25.1-60.7-25.1s-44.5,8.9-60.7,25.1
	c-16.2,16.2-25.1,37.8-25.1,60.7s8.9,44.5,25.1,60.7l52.4,52.4l-52.4,52.4c-33.4,33.4-33.4,87.9,0,121.3
	c16.2,16.2,37.7,25.1,60.7,25.1s44.5-8.9,60.7-25.1l52.4-52.4l52.4,52.4c16.2,16.2,37.7,25.1,60.6,25.1l0,0
	c22.9,0,44.5-8.9,60.7-25.1c16.2-16.2,25.1-37.7,25.1-60.7S701.9,377.8,685.7,361.6z M574.1,145.3c13.6-13.6,31.7-21.1,50.9-21.1
	c19.2,0,37.3,7.5,50.9,21.1c28,28.1,28,73.7,0,101.8l-52.4,52.4L521.8,197.7L574.1,145.3z M348.1,247
	c-13.6-13.6-21.1-31.7-21.1-50.9s7.5-37.3,21.1-50.9c13.6-13.6,31.7-21.1,50.9-21.1s37.3,7.5,50.9,21.1l52.4,52.4L400.4,299.4
	L348.1,247z M449.8,473.1c-13.6,13.6-31.7,21.1-50.9,21.1c-19.2,0-37.3-7.5-50.9-21.1c-28.1-28.1-28.1-73.7,0-101.8l52.4-52.4
	l101.8,101.8L449.8,473.1z M410.2,309.2L512,207.4l101.8,101.8L512,411L410.2,309.2z M675.9,473.1c-13.6,13.6-31.7,21.1-50.9,21.1
	s-37.3-7.5-50.9-21.1l-52.4-52.4L623.5,319l52.4,52.4c13.6,13.6,21.1,31.7,21.1,50.9S689.5,459.5,675.9,473.1z M512,254.9
	c6.4,0,11.5-5.2,11.5-11.5c0-6.4-5.2-11.5-11.5-11.5c-6.4,0-11.5,5.2-11.5,11.5C500.4,249.7,505.6,254.9,512,254.9z M544.9,264.7
	c-6.4,0-11.5,5.2-11.5,11.5s5.2,11.5,11.5,11.5c6.4,0,11.5-5.2,11.5-11.5S551.3,264.7,544.9,264.7z M577.8,297.7
	c-6.4,0-11.5,5.2-11.5,11.5c0,6.4,5.2,11.5,11.5,11.5s11.5-5.2,11.5-11.5S584.2,297.7,577.8,297.7z M446.1,297.7
	c-6.4,0-11.5,5.2-11.5,11.5c0,6.4,5.2,11.5,11.5,11.5s11.5-5.2,11.5-11.5C457.6,302.8,452.5,297.7,446.1,297.7z M479,330.6
	c-6.4,0-11.5,5.2-11.5,11.5c0,6.4,5.2,11.5,11.5,11.5c6.4,0,11.5-5.2,11.5-11.5C490.6,335.8,485.4,330.6,479,330.6z M512,320.7
	c6.4,0,11.5-5.2,11.5-11.5c0-6.4-5.2-11.5-11.5-11.5c-6.4,0-11.5,5.2-11.5,11.5C500.4,315.6,505.6,320.7,512,320.7z M512,363.5
	c-6.4,0-11.5,5.2-11.5,11.5s5.2,11.5,11.5,11.5c6.4,0,11.5-5.2,11.5-11.5C523.5,368.7,518.3,363.5,512,363.5z M544.9,330.6
	c-6.4,0-11.5,5.2-11.5,11.5c0,6.4,5.2,11.5,11.5,11.5c6.4,0,11.5-5.2,11.5-11.5C556.4,335.8,551.3,330.6,544.9,330.6z M479,264.7
	c-6.4,0-11.5,5.2-11.5,11.5s5.2,11.5,11.5,11.5c6.4,0,11.5-5.2,11.5-11.5C490.6,269.9,485.4,264.7,479,264.7z"/>
</svg>
