<?xml version="1.0" encoding="utf-8"?>
<!-- Generator: Adobe Illustrator 18.1.1, SVG Export Plug-In . SVG Version: 6.00 Build 0)  -->
<svg version="1.1" id="Layer_1" xmlns="http://www.w3.org/2000/svg" xmlns:xlink="http://www.w3.org/1999/xlink" x="0px" y="0px"
	 viewBox="203 1 618 617.6" enable-background="new 203 1 618 617.6" xml:space="preserve">
<circle fill="#FF6166" cx="512" cy="310" r="309"/>
<path fill="#FFFFFF" d="M606.9,287.2l6.9,0l0,0c15.3,0,30.2-1.2,44.2-15.2l71.4-71.3c8.3-8.3,8.3-21.9,0-30.2
	c-3.7-3.7-8.4-5.8-13.6-6.2c-0.4-4.9-2.4-9.8-6.2-13.6c-3.7-3.7-8.4-5.8-13.6-6.2c-0.4-4.9-2.4-9.8-6.2-13.6
	c-3.7-3.7-8.4-5.8-13.6-6.2c-0.4-5.1-2.5-9.9-6.2-13.6c-4-4-9.4-6.2-15.1-6.2c-5.7,0-11.1,2.2-15.1,6.2l-71.3,71.3
	c-15.3,15.3-15.2,31.7-15.2,47.6c0,6.3,0.1,12.7-0.8,19.5c-0.6,4.7-8.8,17-25.4,34.3L368.9,125.8c-0.5-0.5-1-0.9-1.6-1.2
	c-19.9-16.9-39.7-17.8-54.6-2.9c-9.3,9.3-12.3,23.4-8.8,41.7c11.6,60.4,92.7,158.5,152.2,184.2c0.2,0.1,0.3,0.1,0.5,0.2
	c-53,45.9-116,98.7-117,99.5c-0.2,0.1-0.3,0.3-0.5,0.5c-14.6,14.8-14.6,38.8,0.1,53.5c7.2,7.2,16.7,11.1,26.8,11.1
	c10.1,0,19.7-3.9,27-11.3c0.1-0.1,0.3-0.3,0.4-0.5c0.9-1.1,63.6-75.9,111.7-131.1l130.2,130.2c7.2,7.2,16.7,11.1,26.8,11.1
	c0,0,0,0,0,0c10.1,0,19.7-3.9,26.8-11.1c7.2-7.2,11.1-16.7,11.1-26.8c0-10.1-4-19.7-11.1-26.8c0,0-0.1-0.1-0.1-0.1L556.5,313.4
	c17.3-16.6,29.6-24.9,34.3-25.4C596.4,287.3,601.8,287.2,606.9,287.2z M318.4,160.6c-2.5-13.3-1-22.9,4.7-28.5
	c4.2-4.2,8.6-6.2,13.4-6.2c6.5,0,14.1,3.7,22.2,10.8c0.2,0.2,0.5,0.4,0.8,0.6l166.7,166.7l-25.8,25.8l-10.1,10.1
	c-5.4-0.1-16.1-0.7-28.2-5.9C406.9,310.3,329.1,216.3,318.4,160.6z M382.3,491c-4.4,4.3-10.1,6.6-16.2,6.6c-6.2,0-12-2.4-16.4-6.8
	c-8.9-8.9-9-23.4-0.3-32.5c6.2-5.2,71.4-59.9,123.8-105.4c7.1,1.5,13,1.8,16.8,1.8c0.2,0,0.3,0,0.4,0l4.4,4.4
	C447.9,412.8,387.2,485.1,382.3,491z M678.5,456.3c0,0,0.1,0.1,0.1,0.1c4.4,4.4,6.8,10.2,6.8,16.4s-2.4,12-6.8,16.4
	c-4.4,4.4-10.2,6.8-16.4,6.8h0c-6.2,0-12-2.4-16.4-6.8l-142-142.1l16.4-16.4l16.4-16.4L678.5,456.3L678.5,456.3z M546.1,303
	l-4.3-4.3l-4.3-4.3c18.4-19,28.5-33.5,29.6-42.9c0.9-7.7,0.9-15,0.9-21.4c-0.1-15.2-0.1-26.1,10.9-37.1l71.3-71.3
	c2.5-2.5,6.8-2.5,9.3,0c1.2,1.2,1.9,2.9,1.9,4.7c0,1.8-0.7,3.4-1.9,4.7l-60,60c-2.9,2.9-2.9,7.5,0,10.4c1.4,1.4,3.3,2.2,5.2,2.2
	c1.9,0,3.8-0.7,5.2-2.2l60-60c2.5-2.5,6.8-2.5,9.3,0c2.6,2.6,2.6,6.8,0,9.3l-60,60c-2.9,2.9-2.9,7.5,0,10.4c1.4,1.4,3.3,2.2,5.2,2.2
	c1.9,0,3.8-0.7,5.2-2.2l60-60l0,0l0,0c2.5-2.5,6.8-2.5,9.3,0c2.6,2.6,2.6,6.8,0,9.3l-60,60c-2.9,2.9-2.9,7.5,0,10.4
	c1.4,1.4,3.3,2.2,5.2,2.2c1.9,0,3.8-0.7,5.2-2.2l60-60l0,0c0,0,0,0,0,0c2.5-2.5,6.8-2.5,9.3,0c2.6,2.6,2.6,6.8,0,9.3l-71.3,71.3
	c-10.1,10.1-20.4,10.9-33.8,10.9l0,0l-6.9,0c-5.5,0-11.4,0.1-17.9,0.9C579.6,274.5,565.1,284.6,546.1,303z"/>
</svg>
