<?xml version="1.0" encoding="utf-8"?>
<!-- Generator: Adobe Illustrator 18.1.1, SVG Export Plug-In . SVG Version: 6.00 Build 0)  -->
<svg version="1.1" id="Layer_1" xmlns="http://www.w3.org/2000/svg" xmlns:xlink="http://www.w3.org/1999/xlink" x="0px" y="0px"
	 viewBox="203 1 618 617.6" enable-background="new 203 1 618 617.6" xml:space="preserve">
<circle fill="#FF6166" cx="512" cy="310" r="309"/>
<path fill="#FFFFFF" d="M721.2,163.2H302.8c-4.1,0-7.4,3.3-7.4,7.4v167.1c0,73.3,52.3,102.8,74.7,112.1c15.6,6.5,31.9,9.8,45.4,9.8
	c5.7,0,10.9-0.6,15.4-1.8c5.2,26.6,28.7,46.7,56.8,46.7h48.6c28.1,0,51.5-20.1,56.8-46.7c4.5,1.2,9.7,1.8,15.4,1.8
	c13.5,0,29.8-3.3,45.4-9.8c22.5-9.3,74.7-38.9,74.7-112.1V170.6C728.5,166.5,725.2,163.2,721.2,163.2z M375.8,436.2
	c-24.1-10-64-35.6-65.5-95.2c9.8-7,31.3-8.9,55.3,1.1c14.8,6.1,62.3,31.3,64.1,100.6C422.1,446,400.7,446.5,375.8,436.2z
	 M429.8,382.3c-12.5-24.3-32.5-43.1-58.5-53.8c-22.2-9.2-45.1-10.4-61.1-4v-66.6h119.6L429.8,382.3L429.8,382.3z M579.4,446.6
	c0,23.8-19.3,43.1-43.1,43.1h-48.6c-23.8,0-43.1-19.3-43.1-43.1V257.8h134.8V446.6z M648.2,436.2c-24.9,10.3-46.3,9.8-53.9,6.5
	c1.7-69.3,49.3-94.5,64.1-100.6c24.1-10,45.5-8.1,55.3-1.1C712.1,400.6,672.2,426.2,648.2,436.2z M713.8,324.4
	c-16-6.4-38.9-5.1-61.1,4c-26,10.7-46,29.6-58.5,53.8V257.8h119.6V324.4z M713.8,243H310.2v-65.1h403.6V243z M464,217.9h95.9
	c4.1,0,7.4-3.3,7.4-7.4c0-4.1-3.3-7.4-7.4-7.4H464c-4.1,0-7.4,3.3-7.4,7.4C456.6,214.6,459.9,217.9,464,217.9z"/>
</svg>
