<?xml version="1.0" encoding="utf-8"?>
<!-- Generator: Adobe Illustrator 18.1.1, SVG Export Plug-In . SVG Version: 6.00 Build 0)  -->
<svg version="1.1" id="Layer_1" xmlns="http://www.w3.org/2000/svg" xmlns:xlink="http://www.w3.org/1999/xlink" x="0px" y="0px"
	 viewBox="-309 459 618 618" enable-background="new -309 459 618 618" xml:space="preserve">
<circle fill="#FF6166" cx="-1" cy="767" r="309"/>
<path fill="#FFFFFF" d="M-69.7,725.4c11.6,0,20.9-9.4,20.9-20.9s-9.4-20.9-20.9-20.9c-11.6,0-20.9,9.4-20.9,20.9
	S-81.3,725.4-69.7,725.4z M73.1,725.4c11.6,0,20.9-9.4,20.9-20.9s-9.4-20.9-20.9-20.9s-20.9,9.4-20.9,20.9S61.5,725.4,73.1,725.4z
	 M0,521.3c-134.3,0-243.5,109.2-243.5,243.5S-134.2,1008.3,0,1008.3S243.5,899,243.5,764.8C243.5,630.5,134.3,521.3,0,521.3z
	 M0,991.9c-125.2,0-227.1-101.9-227.1-227.1S-125.2,537.7,0,537.7s227.1,101.9,227.1,227.1S125.3,991.9,0,991.9z M-1.7,822.9
	c-58.9,0-103.5,21.4-125.5,60.2c-2.2,3.9-0.9,9,3.1,11.2c3.9,2.2,8.9,0.9,11.2-3.1c19.3-34,57.7-51.9,111.3-51.9
	c49.6,0,93.9,20.8,110.2,51.7c1.5,2.8,4.3,4.4,7.3,4.4c1.3,0,2.6-0.3,3.8-0.9c4-2.1,5.5-7.1,3.4-11.1
	C103.7,846.6,54.8,822.9-1.7,822.9z"/>
</svg>
