<?xml version="1.0" encoding="utf-8"?>
<!-- Generator: Adobe Illustrator 18.1.1, SVG Export Plug-In . SVG Version: 6.00 Build 0)  -->
<svg version="1.1" id="Layer_1" xmlns="http://www.w3.org/2000/svg" xmlns:xlink="http://www.w3.org/1999/xlink" x="0px" y="0px"
	 viewBox="203 1 618 618" enable-background="new 203 1 618 618" xml:space="preserve">
<circle fill="#FF6166" cx="512" cy="310" r="309"/>
<path fill="#FFFFFF" d="M552.1,117.2c-18-18-42-28-67.5-28s-49.5,9.9-67.6,28l-123,123c-37.3,37.2-37.3,97.8,0,135.1
	c18.1,18,42,28,67.6,28c0,0,0,0,0,0c25.5,0,49.5-9.9,67.5-28l123-123C589.3,215.1,589.3,154.5,552.1,117.2z M417.8,364
	c-15,15-35,23.3-56.3,23.3c0,0,0,0,0,0c-21.3,0-41.3-8.3-56.3-23.3c-31-31-31-81.5,0-112.6l55.9-55.9l112.5,112.6L417.8,364z
	 M485,296.9L372.4,184.3l55.8-55.8c15-15,35-23.3,56.3-23.3c21.3,0,41.2,8.3,56.3,23.3c31,31,31,81.5,0,112.6L485,296.9z
	 M701.1,321.1c-0.1-0.1-0.1-0.2-0.2-0.3c-0.1-0.1-0.2-0.1-0.3-0.2c-18.6-18.5-44.1-29.9-72.3-29.9c-56.6,0-102.7,46-102.7,102.7
	c0,28.1,11.4,53.6,29.8,72.2c0.1,0.1,0.2,0.3,0.3,0.4c0.1,0.1,0.3,0.2,0.4,0.3c18.6,18.4,44.1,29.8,72.2,29.8
	C685,496,731,450,731,393.4C731,365.2,719.6,339.6,701.1,321.1z M541.6,393.4c0-47.8,38.9-86.7,86.7-86.7c21,0,40.4,7.6,55.4,20.1
	l-122.1,122C549.2,433.7,541.6,414.4,541.6,393.4z M628.4,480.1c-21,0-40.4-7.6-55.4-20.1L695,338c12.5,15,20.1,34.3,20.1,55.4
	C715.1,441.2,676.2,480.1,628.4,480.1z"/>
</svg>
